<svg width="290" height="150" viewBox="0 0 290 150" fill="none" xmlns="http://www.w3.org/2000/svg">
<rect width="290" height="150" rx="10" fill="#F2EBFF"/>
<path d="M129 73.24H161V41.24H129V73.24Z" fill="white"/>
<path d="M64.72 107.24C62.96 107.24 61.448 106.888 60.184 106.184C58.936 105.464 57.976 104.456 57.304 103.16C56.632 101.848 56.296 100.304 56.296 98.528C56.296 96.752 56.632 95.216 57.304 93.92C57.976 92.624 58.936 91.624 60.184 90.92C61.448 90.2 62.96 89.84 64.72 89.84C65.856 89.84 66.928 90.016 67.936 90.368C68.96 90.72 69.8 91.224 70.456 91.88L69.448 94.328C68.728 93.72 67.992 93.28 67.24 93.008C66.488 92.72 65.68 92.576 64.816 92.576C63.104 92.576 61.8 93.096 60.904 94.136C60.008 95.16 59.56 96.624 59.56 98.528C59.56 100.432 60.008 101.904 60.904 102.944C61.8 103.984 63.104 104.504 64.816 104.504C65.68 104.504 66.488 104.368 67.24 104.096C67.992 103.808 68.728 103.36 69.448 102.752L70.456 105.2C69.8 105.84 68.96 106.344 67.936 106.712C66.928 107.064 65.856 107.24 64.72 107.24ZM77.3573 107.24C76.1413 107.24 75.0853 106.992 74.1893 106.496C73.2933 106 72.5973 105.296 72.1013 104.384C71.6053 103.456 71.3573 102.368 71.3573 101.12C71.3573 99.872 71.6053 98.792 72.1013 97.88C72.5973 96.968 73.2933 96.264 74.1893 95.768C75.0853 95.272 76.1413 95.024 77.3573 95.024C78.5733 95.024 79.6293 95.272 80.5253 95.768C81.4213 96.264 82.1173 96.968 82.6133 97.88C83.1093 98.792 83.3573 99.872 83.3573 101.12C83.3573 102.368 83.1093 103.456 82.6133 104.384C82.1173 105.296 81.4213 106 80.5253 106.496C79.6293 106.992 78.5733 107.24 77.3573 107.24ZM77.3573 104.96C78.2533 104.96 78.9733 104.64 79.5173 104C80.0613 103.344 80.3333 102.384 80.3333 101.12C80.3333 99.84 80.0613 98.888 79.5173 98.264C78.9733 97.624 78.2533 97.304 77.3573 97.304C76.4613 97.304 75.7413 97.624 75.1973 98.264C74.6533 98.888 74.3813 99.84 74.3813 101.12C74.3813 102.384 74.6533 103.344 75.1973 104C75.7413 104.64 76.4613 104.96 77.3573 104.96ZM85.8334 107V95.264H88.7614V97.088C89.1614 96.416 89.6974 95.904 90.3694 95.552C91.0574 95.2 91.8254 95.024 92.6734 95.024C95.4414 95.024 96.8254 96.632 96.8254 99.848V107H93.8254V99.992C93.8254 99.08 93.6494 98.416 93.2974 98C92.9614 97.584 92.4334 97.376 91.7134 97.376C90.8334 97.376 90.1294 97.656 89.6014 98.216C89.0894 98.76 88.8334 99.488 88.8334 100.4V107H85.8334ZM105.345 111.56C104.257 111.56 103.233 111.432 102.273 111.176C101.329 110.936 100.497 110.56 99.7765 110.048L100.641 107.96C101.313 108.408 102.033 108.736 102.801 108.944C103.569 109.168 104.337 109.28 105.105 109.28C107.249 109.28 108.321 108.248 108.321 106.184V104.576C107.985 105.232 107.465 105.752 106.761 106.136C106.073 106.52 105.305 106.712 104.457 106.712C103.401 106.712 102.481 106.472 101.697 105.992C100.913 105.496 100.305 104.808 99.8725 103.928C99.4405 103.048 99.2245 102.024 99.2245 100.856C99.2245 99.688 99.4405 98.672 99.8725 97.808C100.305 96.928 100.913 96.248 101.697 95.768C102.481 95.272 103.401 95.024 104.457 95.024C105.337 95.024 106.121 95.224 106.809 95.624C107.497 96.008 108.001 96.528 108.321 97.184V95.264H111.249V105.824C111.249 107.728 110.745 109.16 109.737 110.12C108.729 111.08 107.265 111.56 105.345 111.56ZM105.273 104.432C106.201 104.432 106.937 104.112 107.481 103.472C108.025 102.832 108.297 101.96 108.297 100.856C108.297 99.752 108.025 98.888 107.481 98.264C106.937 97.624 106.201 97.304 105.273 97.304C104.345 97.304 103.609 97.624 103.065 98.264C102.521 98.888 102.249 99.752 102.249 100.856C102.249 101.96 102.521 102.832 103.065 103.472C103.609 104.112 104.345 104.432 105.273 104.432ZM114.357 107V95.264H117.285V97.328C117.861 95.936 119.093 95.168 120.981 95.024L121.893 94.952L122.085 97.496L120.357 97.664C118.389 97.856 117.405 98.864 117.405 100.688V107H114.357ZM127.502 107.24C126.654 107.24 125.894 107.08 125.222 106.76C124.566 106.424 124.046 105.976 123.662 105.416C123.294 104.856 123.11 104.224 123.11 103.52C123.11 102.656 123.334 101.976 123.782 101.48C124.23 100.968 124.958 100.6 125.966 100.376C126.974 100.152 128.326 100.04 130.022 100.04H130.862V99.536C130.862 98.736 130.686 98.16 130.334 97.808C129.982 97.456 129.39 97.28 128.558 97.28C127.902 97.28 127.23 97.384 126.542 97.592C125.854 97.784 125.158 98.088 124.454 98.504L123.59 96.464C124.006 96.176 124.494 95.928 125.054 95.72C125.63 95.496 126.23 95.328 126.854 95.216C127.494 95.088 128.094 95.024 128.654 95.024C130.366 95.024 131.638 95.424 132.47 96.224C133.302 97.008 133.718 98.232 133.718 99.896V107H130.91V105.128C130.638 105.784 130.206 106.304 129.614 106.688C129.022 107.056 128.318 107.24 127.502 107.24ZM128.126 105.176C128.91 105.176 129.558 104.904 130.07 104.36C130.598 103.816 130.862 103.128 130.862 102.296V101.768H130.046C128.542 101.768 127.494 101.888 126.902 102.128C126.326 102.352 126.038 102.768 126.038 103.376C126.038 103.904 126.222 104.336 126.59 104.672C126.958 105.008 127.47 105.176 128.126 105.176ZM142.139 107.24C139.035 107.24 137.483 105.704 137.483 102.632V97.52H135.227V95.264H137.483V91.76H140.483V95.264H144.035V97.52H140.483V102.464C140.483 103.232 140.651 103.808 140.987 104.192C141.323 104.576 141.867 104.768 142.619 104.768C142.843 104.768 143.075 104.744 143.315 104.696C143.555 104.632 143.803 104.568 144.059 104.504L144.515 106.712C144.227 106.872 143.859 107 143.411 107.096C142.979 107.192 142.555 107.24 142.139 107.24ZM150.222 107.24C147.342 107.24 145.902 105.624 145.902 102.392V95.264H148.902V102.44C148.902 103.272 149.07 103.888 149.406 104.288C149.742 104.688 150.278 104.888 151.014 104.888C151.814 104.888 152.47 104.616 152.982 104.072C153.494 103.512 153.75 102.776 153.75 101.864V95.264H156.75V107H153.822V105.248C153.038 106.576 151.838 107.24 150.222 107.24ZM163.953 107.24C162.561 107.24 161.529 106.864 160.857 106.112C160.201 105.344 159.873 104.224 159.873 102.752V90.08H162.873V102.608C162.873 104.048 163.481 104.768 164.697 104.768C164.873 104.768 165.049 104.76 165.225 104.744C165.401 104.728 165.569 104.696 165.729 104.648L165.681 107.024C165.105 107.168 164.529 107.24 163.953 107.24ZM171.401 107.24C170.553 107.24 169.793 107.08 169.121 106.76C168.465 106.424 167.945 105.976 167.561 105.416C167.193 104.856 167.009 104.224 167.009 103.52C167.009 102.656 167.233 101.976 167.681 101.48C168.129 100.968 168.857 100.6 169.865 100.376C170.873 100.152 172.225 100.04 173.921 100.04H174.761V99.536C174.761 98.736 174.585 98.16 174.233 97.808C173.881 97.456 173.289 97.28 172.457 97.28C171.801 97.28 171.129 97.384 170.441 97.592C169.753 97.784 169.057 98.088 168.353 98.504L167.489 96.464C167.905 96.176 168.393 95.928 168.953 95.72C169.529 95.496 170.129 95.328 170.753 95.216C171.393 95.088 171.993 95.024 172.553 95.024C174.265 95.024 175.537 95.424 176.369 96.224C177.201 97.008 177.617 98.232 177.617 99.896V107H174.809V105.128C174.537 105.784 174.105 106.304 173.513 106.688C172.921 107.056 172.217 107.24 171.401 107.24ZM172.025 105.176C172.809 105.176 173.457 104.904 173.969 104.36C174.497 103.816 174.761 103.128 174.761 102.296V101.768H173.945C172.441 101.768 171.393 101.888 170.801 102.128C170.225 102.352 169.937 102.768 169.937 103.376C169.937 103.904 170.121 104.336 170.489 104.672C170.857 105.008 171.369 105.176 172.025 105.176ZM186.038 107.24C182.934 107.24 181.382 105.704 181.382 102.632V97.52H179.126V95.264H181.382V91.76H184.382V95.264H187.934V97.52H184.382V102.464C184.382 103.232 184.55 103.808 184.886 104.192C185.222 104.576 185.766 104.768 186.518 104.768C186.742 104.768 186.974 104.744 187.214 104.696C187.454 104.632 187.702 104.568 187.958 104.504L188.414 106.712C188.126 106.872 187.758 107 187.31 107.096C186.878 107.192 186.454 107.24 186.038 107.24ZM189.681 92.744V89.816H193.041V92.744H189.681ZM189.873 107V95.264H192.873V107H189.873ZM201.342 107.24C200.126 107.24 199.07 106.992 198.174 106.496C197.278 106 196.582 105.296 196.086 104.384C195.59 103.456 195.342 102.368 195.342 101.12C195.342 99.872 195.59 98.792 196.086 97.88C196.582 96.968 197.278 96.264 198.174 95.768C199.07 95.272 200.126 95.024 201.342 95.024C202.558 95.024 203.614 95.272 204.51 95.768C205.406 96.264 206.102 96.968 206.598 97.88C207.094 98.792 207.342 99.872 207.342 101.12C207.342 102.368 207.094 103.456 206.598 104.384C206.102 105.296 205.406 106 204.51 106.496C203.614 106.992 202.558 107.24 201.342 107.24ZM201.342 104.96C202.238 104.96 202.958 104.64 203.502 104C204.046 103.344 204.318 102.384 204.318 101.12C204.318 99.84 204.046 98.888 203.502 98.264C202.958 97.624 202.238 97.304 201.342 97.304C200.446 97.304 199.726 97.624 199.182 98.264C198.638 98.888 198.366 99.84 198.366 101.12C198.366 102.384 198.638 103.344 199.182 104C199.726 104.64 200.446 104.96 201.342 104.96ZM209.818 107V95.264H212.746V97.088C213.146 96.416 213.682 95.904 214.354 95.552C215.042 95.2 215.81 95.024 216.658 95.024C219.426 95.024 220.81 96.632 220.81 99.848V107H217.81V99.992C217.81 99.08 217.634 98.416 217.282 98C216.946 97.584 216.418 97.376 215.698 97.376C214.818 97.376 214.114 97.656 213.586 98.216C213.074 98.76 212.818 99.488 212.818 100.4V107H209.818ZM228.153 107.24C227.161 107.24 226.233 107.12 225.369 106.88C224.505 106.64 223.785 106.296 223.209 105.848L223.977 103.88C224.569 104.28 225.233 104.592 225.969 104.816C226.705 105.024 227.441 105.128 228.177 105.128C228.945 105.128 229.513 105 229.881 104.744C230.265 104.472 230.457 104.12 230.457 103.688C230.457 103.016 229.961 102.584 228.969 102.392L226.569 101.936C224.537 101.552 223.521 100.496 223.521 98.768C223.521 98 223.729 97.336 224.145 96.776C224.577 96.216 225.169 95.784 225.921 95.48C226.673 95.176 227.537 95.024 228.513 95.024C229.345 95.024 230.145 95.144 230.913 95.384C231.681 95.608 232.337 95.952 232.881 96.416L232.065 98.384C231.601 98 231.041 97.696 230.385 97.472C229.745 97.248 229.129 97.136 228.537 97.136C227.753 97.136 227.169 97.272 226.785 97.544C226.417 97.816 226.233 98.176 226.233 98.624C226.233 99.328 226.689 99.76 227.601 99.92L230.001 100.376C231.041 100.568 231.825 100.92 232.353 101.432C232.897 101.944 233.169 102.632 233.169 103.496C233.169 104.664 232.713 105.584 231.801 106.256C230.889 106.912 229.673 107.24 228.153 107.24Z" fill="#360099"/>
</svg>
