<svg width="241" height="150" viewBox="0 0 241 150" fill="none" xmlns="http://www.w3.org/2000/svg">
<rect width="290" height="150" rx="10" fill="#FFF1EF"/>
<path d="M129 73.24H161V41.24H129V73.24Z" fill="white"/>
<path d="M98.348 107V90.08H109.412V92.528H101.42V97.304H108.908V99.752H101.42V107H98.348ZM114.932 107.24C114.084 107.24 113.324 107.08 112.652 106.76C111.996 106.424 111.476 105.976 111.092 105.416C110.724 104.856 110.54 104.224 110.54 103.52C110.54 102.656 110.764 101.976 111.212 101.48C111.66 100.968 112.388 100.6 113.396 100.376C114.404 100.152 115.756 100.04 117.452 100.04H118.292V99.536C118.292 98.736 118.116 98.16 117.764 97.808C117.412 97.456 116.82 97.28 115.988 97.28C115.332 97.28 114.66 97.384 113.972 97.592C113.284 97.784 112.588 98.088 111.884 98.504L111.02 96.464C111.436 96.176 111.924 95.928 112.484 95.72C113.06 95.496 113.66 95.328 114.284 95.216C114.924 95.088 115.524 95.024 116.084 95.024C117.796 95.024 119.068 95.424 119.9 96.224C120.732 97.008 121.148 98.232 121.148 99.896V107H118.34V105.128C118.068 105.784 117.636 106.304 117.044 106.688C116.452 107.056 115.748 107.24 114.932 107.24ZM115.556 105.176C116.34 105.176 116.988 104.904 117.5 104.36C118.028 103.816 118.292 103.128 118.292 102.296V101.768H117.476C115.972 101.768 114.924 101.888 114.332 102.128C113.756 102.352 113.468 102.768 113.468 103.376C113.468 103.904 113.652 104.336 114.02 104.672C114.388 105.008 114.9 105.176 115.556 105.176ZM124.193 107V95.264H127.121V97.328C127.697 95.936 128.929 95.168 130.817 95.024L131.729 94.952L131.921 97.496L130.193 97.664C128.225 97.856 127.241 98.864 127.241 100.688V107H124.193ZM139.188 107.24C137.86 107.24 136.716 106.992 135.756 106.496C134.796 106 134.052 105.296 133.524 104.384C133.012 103.472 132.756 102.392 132.756 101.144C132.756 99.928 133.004 98.864 133.5 97.952C134.012 97.04 134.708 96.328 135.588 95.816C136.484 95.288 137.5 95.024 138.636 95.024C140.3 95.024 141.612 95.552 142.572 96.608C143.548 97.664 144.036 99.104 144.036 100.928V101.816H135.636C135.86 103.912 137.06 104.96 139.236 104.96C139.892 104.96 140.548 104.864 141.204 104.672C141.86 104.464 142.46 104.144 143.004 103.712L143.844 105.728C143.284 106.192 142.58 106.56 141.732 106.832C140.884 107.104 140.036 107.24 139.188 107.24ZM138.756 97.064C137.876 97.064 137.164 97.336 136.62 97.88C136.076 98.424 135.748 99.16 135.636 100.088H141.54C141.476 99.112 141.204 98.368 140.724 97.856C140.26 97.328 139.604 97.064 138.756 97.064ZM149.464 107L144.832 95.264H147.904L150.904 103.52L153.928 95.264H156.04L159.064 103.568L162.064 95.264H164.968L160.36 107H157.744L154.888 99.44L152.08 107H149.464ZM172.235 107.24C170.907 107.24 169.763 106.992 168.803 106.496C167.843 106 167.099 105.296 166.571 104.384C166.059 103.472 165.803 102.392 165.803 101.144C165.803 99.928 166.051 98.864 166.547 97.952C167.059 97.04 167.755 96.328 168.635 95.816C169.531 95.288 170.547 95.024 171.683 95.024C173.347 95.024 174.659 95.552 175.619 96.608C176.595 97.664 177.083 99.104 177.083 100.928V101.816H168.683C168.907 103.912 170.107 104.96 172.283 104.96C172.939 104.96 173.595 104.864 174.251 104.672C174.907 104.464 175.507 104.144 176.051 103.712L176.891 105.728C176.331 106.192 175.627 106.56 174.779 106.832C173.931 107.104 173.083 107.24 172.235 107.24ZM171.803 97.064C170.923 97.064 170.211 97.336 169.667 97.88C169.123 98.424 168.795 99.16 168.683 100.088H174.587C174.523 99.112 174.251 98.368 173.771 97.856C173.307 97.328 172.651 97.064 171.803 97.064ZM183.538 107.24C182.146 107.24 181.114 106.864 180.442 106.112C179.786 105.344 179.458 104.224 179.458 102.752V90.08H182.458V102.608C182.458 104.048 183.066 104.768 184.282 104.768C184.458 104.768 184.634 104.76 184.81 104.744C184.986 104.728 185.154 104.696 185.314 104.648L185.266 107.024C184.69 107.168 184.114 107.24 183.538 107.24ZM191.203 107.24C189.811 107.24 188.779 106.864 188.107 106.112C187.451 105.344 187.123 104.224 187.123 102.752V90.08H190.123V102.608C190.123 104.048 190.731 104.768 191.947 104.768C192.123 104.768 192.299 104.76 192.475 104.744C192.651 104.728 192.819 104.696 192.979 104.648L192.931 107.024C192.355 107.168 191.779 107.24 191.203 107.24Z" fill="#FD8A81"/>
</svg>
