<svg width="25" height="24" viewBox="0 0 25 24" fill="none" xmlns="http://www.w3.org/2000/svg">
<path fill-rule="evenodd" clip-rule="evenodd" d="M5.16602 3.24268C4.33759 3.24268 3.66602 3.91425 3.66602 4.74268V19.7427C3.66602 20.5711 4.33759 21.2427 5.16602 21.2427H20.166C20.9944 21.2427 21.666 20.5711 21.666 19.7427V4.74268C21.666 3.91425 20.9944 3.24268 20.166 3.24268H5.16602ZM9.18678 7.2454C9.19241 8.20165 8.47663 8.79087 7.62725 8.78665C6.82709 8.78243 6.12959 8.1454 6.13381 7.24681C6.13803 6.40165 6.806 5.72243 7.67366 5.74212C8.55397 5.76181 9.19241 6.40728 9.18678 7.2454ZM12.9457 10.0044H10.4257H10.4243V18.5643H13.0877V18.3646C13.0877 17.9847 13.0874 17.6047 13.0871 17.2246C13.0863 16.2108 13.0854 15.1959 13.0906 14.1824C13.092 13.9363 13.1032 13.6804 13.1665 13.4455C13.4041 12.568 14.1931 12.0013 15.0734 12.1406C15.6387 12.2291 16.0127 12.5568 16.1702 13.0898C16.2673 13.423 16.3109 13.7816 16.3151 14.129C16.3265 15.1766 16.3249 16.2242 16.3233 17.2719C16.3227 17.6417 16.3221 18.0117 16.3221 18.3815V18.5629H18.994V18.3576C18.994 17.9056 18.9938 17.4537 18.9935 17.0018C18.993 15.8723 18.9924 14.7428 18.9954 13.6129C18.9968 13.1024 18.942 12.599 18.8168 12.1054C18.6298 11.3713 18.2431 10.7638 17.6145 10.3251C17.1687 10.0129 16.6793 9.81178 16.1323 9.78928C16.07 9.78669 16.0072 9.7833 15.9441 9.77989C15.6644 9.76477 15.3801 9.74941 15.1127 9.80334C14.3477 9.95662 13.6756 10.3068 13.1679 10.9241C13.1089 10.9949 13.0512 11.0668 12.9651 11.1741L12.9457 11.1984V10.0044ZM6.34766 18.5671H8.99844V10.01H6.34766V18.5671Z" fill="black"/>
</svg>
