<svg width="290" height="150" viewBox="0 0 290 150" fill="none" xmlns="http://www.w3.org/2000/svg">
<rect width="290" height="150" rx="10" fill="#EDFCFF"/>
<path d="M129 73.24H161V41.24H129V73.24Z" fill="white"/>
<path d="M84.848 107V90.08H92.192C94.048 90.08 95.48 90.528 96.488 91.424C97.496 92.304 98 93.544 98 95.144C98 96.408 97.672 97.456 97.016 98.288C96.36 99.104 95.416 99.656 94.184 99.944C95 100.2 95.672 100.816 96.2 101.792L99.032 107H95.648L92.72 101.6C92.432 101.072 92.088 100.712 91.688 100.52C91.304 100.328 90.808 100.232 90.2 100.232H87.92V107H84.848ZM87.92 97.952H91.664C93.904 97.952 95.024 97.04 95.024 95.216C95.024 93.408 93.904 92.504 91.664 92.504H87.92V97.952ZM106.492 107.24C105.164 107.24 104.02 106.992 103.06 106.496C102.1 106 101.356 105.296 100.828 104.384C100.316 103.472 100.06 102.392 100.06 101.144C100.06 99.928 100.308 98.864 100.804 97.952C101.316 97.04 102.012 96.328 102.892 95.816C103.788 95.288 104.804 95.024 105.94 95.024C107.604 95.024 108.916 95.552 109.876 96.608C110.852 97.664 111.34 99.104 111.34 100.928V101.816H102.94C103.164 103.912 104.364 104.96 106.54 104.96C107.196 104.96 107.852 104.864 108.508 104.672C109.164 104.464 109.764 104.144 110.308 103.712L111.148 105.728C110.588 106.192 109.884 106.56 109.036 106.832C108.188 107.104 107.34 107.24 106.492 107.24ZM106.06 97.064C105.18 97.064 104.468 97.336 103.924 97.88C103.38 98.424 103.052 99.16 102.94 100.088H108.844C108.78 99.112 108.508 98.368 108.028 97.856C107.564 97.328 106.908 97.064 106.06 97.064ZM119.045 107.24C115.941 107.24 114.389 105.704 114.389 102.632V97.52H112.133V95.264H114.389V91.76H117.389V95.264H120.941V97.52H117.389V102.464C117.389 103.232 117.557 103.808 117.893 104.192C118.229 104.576 118.773 104.768 119.525 104.768C119.749 104.768 119.981 104.744 120.221 104.696C120.461 104.632 120.709 104.568 120.965 104.504L121.421 106.712C121.133 106.872 120.765 107 120.317 107.096C119.885 107.192 119.461 107.24 119.045 107.24ZM122.688 92.744V89.816H126.048V92.744H122.688ZM122.88 107V95.264H125.88V107H122.88ZM128.998 107V95.264H131.926V97.328C132.502 95.936 133.734 95.168 135.622 95.024L136.534 94.952L136.726 97.496L134.998 97.664C133.03 97.856 132.046 98.864 132.046 100.688V107H128.998ZM143.992 107.24C142.664 107.24 141.52 106.992 140.56 106.496C139.6 106 138.856 105.296 138.328 104.384C137.816 103.472 137.56 102.392 137.56 101.144C137.56 99.928 137.808 98.864 138.304 97.952C138.816 97.04 139.512 96.328 140.392 95.816C141.288 95.288 142.304 95.024 143.44 95.024C145.104 95.024 146.416 95.552 147.376 96.608C148.352 97.664 148.84 99.104 148.84 100.928V101.816H140.44C140.664 103.912 141.864 104.96 144.04 104.96C144.696 104.96 145.352 104.864 146.008 104.672C146.664 104.464 147.264 104.144 147.808 103.712L148.648 105.728C148.088 106.192 147.384 106.56 146.536 106.832C145.688 107.104 144.84 107.24 143.992 107.24ZM143.56 97.064C142.68 97.064 141.968 97.336 141.424 97.88C140.88 98.424 140.552 99.16 140.44 100.088H146.344C146.28 99.112 146.008 98.368 145.528 97.856C145.064 97.328 144.408 97.064 143.56 97.064ZM151.264 107V95.264H154.192V97.064C154.544 96.424 155.032 95.928 155.656 95.576C156.28 95.208 157 95.024 157.816 95.024C159.576 95.024 160.728 95.792 161.272 97.328C161.64 96.608 162.168 96.048 162.856 95.648C163.544 95.232 164.328 95.024 165.208 95.024C167.848 95.024 169.168 96.632 169.168 99.848V107H166.168V99.968C166.168 99.072 166.016 98.416 165.712 98C165.424 97.584 164.928 97.376 164.224 97.376C163.44 97.376 162.824 97.656 162.376 98.216C161.928 98.76 161.704 99.52 161.704 100.496V107H158.704V99.968C158.704 99.072 158.552 98.416 158.248 98C157.96 97.584 157.472 97.376 156.784 97.376C156 97.376 155.384 97.656 154.936 98.216C154.488 98.76 154.264 99.52 154.264 100.496V107H151.264ZM178.047 107.24C176.719 107.24 175.575 106.992 174.615 106.496C173.655 106 172.911 105.296 172.383 104.384C171.871 103.472 171.615 102.392 171.615 101.144C171.615 99.928 171.863 98.864 172.359 97.952C172.871 97.04 173.567 96.328 174.447 95.816C175.343 95.288 176.359 95.024 177.495 95.024C179.159 95.024 180.471 95.552 181.431 96.608C182.407 97.664 182.895 99.104 182.895 100.928V101.816H174.495C174.719 103.912 175.919 104.96 178.095 104.96C178.751 104.96 179.407 104.864 180.063 104.672C180.719 104.464 181.319 104.144 181.863 103.712L182.703 105.728C182.143 106.192 181.439 106.56 180.591 106.832C179.743 107.104 178.895 107.24 178.047 107.24ZM177.615 97.064C176.735 97.064 176.023 97.336 175.479 97.88C174.935 98.424 174.607 99.16 174.495 100.088H180.399C180.335 99.112 180.063 98.368 179.583 97.856C179.119 97.328 178.463 97.064 177.615 97.064ZM185.271 107V95.264H188.199V97.088C188.599 96.416 189.135 95.904 189.807 95.552C190.495 95.2 191.263 95.024 192.111 95.024C194.879 95.024 196.263 96.632 196.263 99.848V107H193.263V99.992C193.263 99.08 193.087 98.416 192.735 98C192.399 97.584 191.871 97.376 191.151 97.376C190.271 97.376 189.567 97.656 189.039 98.216C188.527 98.76 188.271 99.488 188.271 100.4V107H185.271ZM204.686 107.24C201.582 107.24 200.03 105.704 200.03 102.632V97.52H197.774V95.264H200.03V91.76H203.03V95.264H206.582V97.52H203.03V102.464C203.03 103.232 203.198 103.808 203.534 104.192C203.87 104.576 204.414 104.768 205.166 104.768C205.39 104.768 205.622 104.744 205.862 104.696C206.102 104.632 206.35 104.568 206.606 104.504L207.062 106.712C206.774 106.872 206.406 107 205.958 107.096C205.526 107.192 205.102 107.24 204.686 107.24Z" fill="#537C1D"/>
</svg>
