<svg width="125" height="84" viewBox="0 0 125 84" fill="none" xmlns="http://www.w3.org/2000/svg">
<path d="M46 40.24H78V8.24H46V40.24Z" fill="white"/>
<path d="M1.848 74V57.08H9.192C11.048 57.08 12.48 57.528 13.488 58.424C14.496 59.304 15 60.544 15 62.144C15 63.408 14.672 64.456 14.016 65.288C13.36 66.104 12.416 66.656 11.184 66.944C12 67.2 12.672 67.816 13.2 68.792L16.032 74H12.648L9.72 68.6C9.432 68.072 9.088 67.712 8.688 67.52C8.304 67.328 7.808 67.232 7.2 67.232H4.92V74H1.848ZM4.92 64.952H8.664C10.904 64.952 12.024 64.04 12.024 62.216C12.024 60.408 10.904 59.504 8.664 59.504H4.92V64.952ZM23.4924 74.24C22.1644 74.24 21.0204 73.992 20.0604 73.496C19.1004 73 18.3564 72.296 17.8284 71.384C17.3164 70.472 17.0604 69.392 17.0604 68.144C17.0604 66.928 17.3084 65.864 17.8044 64.952C18.3164 64.04 19.0124 63.328 19.8924 62.816C20.7884 62.288 21.8044 62.024 22.9404 62.024C24.6044 62.024 25.9164 62.552 26.8764 63.608C27.8524 64.664 28.3404 66.104 28.3404 67.928V68.816H19.9404C20.1644 70.912 21.3644 71.96 23.5404 71.96C24.1964 71.96 24.8524 71.864 25.5084 71.672C26.1644 71.464 26.7644 71.144 27.3084 70.712L28.1484 72.728C27.5884 73.192 26.8844 73.56 26.0364 73.832C25.1884 74.104 24.3404 74.24 23.4924 74.24ZM23.0604 64.064C22.1804 64.064 21.4684 64.336 20.9244 64.88C20.3804 65.424 20.0524 66.16 19.9404 67.088H25.8444C25.7804 66.112 25.5084 65.368 25.0284 64.856C24.5644 64.328 23.9084 64.064 23.0604 64.064ZM36.0454 74.24C32.9414 74.24 31.3894 72.704 31.3894 69.632V64.52H29.1334V62.264H31.3894V58.76H34.3894V62.264H37.9414V64.52H34.3894V69.464C34.3894 70.232 34.5574 70.808 34.8934 71.192C35.2294 71.576 35.7734 71.768 36.5254 71.768C36.7494 71.768 36.9814 71.744 37.2214 71.696C37.4614 71.632 37.7094 71.568 37.9654 71.504L38.4214 73.712C38.1334 73.872 37.7654 74 37.3174 74.096C36.8854 74.192 36.4614 74.24 36.0454 74.24ZM39.6883 59.744V56.816H43.0483V59.744H39.6883ZM39.8803 74V62.264H42.8803V74H39.8803ZM45.9975 74V62.264H48.9255V64.328C49.5015 62.936 50.7335 62.168 52.6215 62.024L53.5335 61.952L53.7255 64.496L51.9975 64.664C50.0295 64.856 49.0455 65.864 49.0455 67.688V74H45.9975ZM60.9924 74.24C59.6644 74.24 58.5204 73.992 57.5604 73.496C56.6004 73 55.8564 72.296 55.3284 71.384C54.8164 70.472 54.5604 69.392 54.5604 68.144C54.5604 66.928 54.8084 65.864 55.3044 64.952C55.8164 64.04 56.5124 63.328 57.3924 62.816C58.2884 62.288 59.3044 62.024 60.4404 62.024C62.1044 62.024 63.4164 62.552 64.3764 63.608C65.3524 64.664 65.8404 66.104 65.8404 67.928V68.816H57.4404C57.6644 70.912 58.8644 71.96 61.0404 71.96C61.6964 71.96 62.3524 71.864 63.0084 71.672C63.6644 71.464 64.2644 71.144 64.8084 70.712L65.6484 72.728C65.0884 73.192 64.3844 73.56 63.5364 73.832C62.6884 74.104 61.8404 74.24 60.9924 74.24ZM60.5604 64.064C59.6804 64.064 58.9684 64.336 58.4244 64.88C57.8804 65.424 57.5524 66.16 57.4404 67.088H63.3444C63.2804 66.112 63.0084 65.368 62.5284 64.856C62.0644 64.328 61.4084 64.064 60.5604 64.064ZM68.2643 74V62.264H71.1923V64.064C71.5443 63.424 72.0323 62.928 72.6562 62.576C73.2803 62.208 74.0003 62.024 74.8163 62.024C76.5763 62.024 77.7283 62.792 78.2723 64.328C78.6403 63.608 79.1683 63.048 79.8563 62.648C80.5443 62.232 81.3283 62.024 82.2083 62.024C84.8483 62.024 86.1683 63.632 86.1683 66.848V74H83.1683V66.968C83.1683 66.072 83.0163 65.416 82.7123 65C82.4243 64.584 81.9283 64.376 81.2243 64.376C80.4403 64.376 79.8243 64.656 79.3763 65.216C78.9283 65.76 78.7043 66.52 78.7043 67.496V74H75.7043V66.968C75.7043 66.072 75.5523 65.416 75.2483 65C74.9603 64.584 74.4723 64.376 73.7843 64.376C73.0003 64.376 72.3843 64.656 71.9363 65.216C71.4883 65.76 71.2643 66.52 71.2643 67.496V74H68.2643ZM95.0471 74.24C93.7191 74.24 92.5751 73.992 91.6151 73.496C90.6551 73 89.9111 72.296 89.3831 71.384C88.8711 70.472 88.6151 69.392 88.6151 68.144C88.6151 66.928 88.8631 65.864 89.3591 64.952C89.8711 64.04 90.5671 63.328 91.4471 62.816C92.3431 62.288 93.3591 62.024 94.4951 62.024C96.1591 62.024 97.4711 62.552 98.4311 63.608C99.4071 64.664 99.8951 66.104 99.8951 67.928V68.816H91.4951C91.7191 70.912 92.9191 71.96 95.0951 71.96C95.7511 71.96 96.4071 71.864 97.0631 71.672C97.7191 71.464 98.3191 71.144 98.8631 70.712L99.7031 72.728C99.1431 73.192 98.4391 73.56 97.5911 73.832C96.7431 74.104 95.8951 74.24 95.0471 74.24ZM94.6151 64.064C93.7351 64.064 93.0231 64.336 92.4791 64.88C91.9351 65.424 91.6071 66.16 91.4951 67.088H97.3991C97.3351 66.112 97.0631 65.368 96.5831 64.856C96.1191 64.328 95.4631 64.064 94.6151 64.064ZM102.271 74V62.264H105.199V64.088C105.599 63.416 106.135 62.904 106.807 62.552C107.495 62.2 108.263 62.024 109.111 62.024C111.879 62.024 113.263 63.632 113.263 66.848V74H110.263V66.992C110.263 66.08 110.087 65.416 109.735 65C109.399 64.584 108.871 64.376 108.151 64.376C107.271 64.376 106.567 64.656 106.039 65.216C105.527 65.76 105.271 66.488 105.271 67.4V74H102.271ZM121.686 74.24C118.582 74.24 117.03 72.704 117.03 69.632V64.52H114.774V62.264H117.03V58.76H120.03V62.264H123.582V64.52H120.03V69.464C120.03 70.232 120.198 70.808 120.534 71.192C120.87 71.576 121.414 71.768 122.166 71.768C122.39 71.768 122.622 71.744 122.862 71.696C123.102 71.632 123.35 71.568 123.606 71.504L124.062 73.712C123.774 73.872 123.406 74 122.958 74.096C122.526 74.192 122.102 74.24 121.686 74.24Z" fill="#537C1D"/>
</svg>
