<svg width="290" height="150" viewBox="0 0 290 150" fill="none" xmlns="http://www.w3.org/2000/svg">
<rect width="290" height="150" rx="10" fill="#FFF1EF"/>
<path d="M129 73.24H161V41.24H129V73.24Z" fill="white"/>
<path d="M77.484 107.24C75.612 107.24 74.028 106.888 72.732 106.184C71.452 105.48 70.476 104.48 69.804 103.184C69.132 101.888 68.796 100.352 68.796 98.576C68.796 96.784 69.14 95.24 69.828 93.944C70.516 92.632 71.508 91.624 72.804 90.92C74.1 90.2 75.652 89.84 77.46 89.84C78.644 89.84 79.756 90.016 80.796 90.368C81.836 90.704 82.7 91.176 83.388 91.784L82.356 94.184C81.604 93.592 80.836 93.168 80.052 92.912C79.268 92.656 78.404 92.528 77.46 92.528C75.668 92.528 74.308 93.048 73.38 94.088C72.468 95.128 72.012 96.624 72.012 98.576C72.012 100.544 72.484 102.04 73.428 103.064C74.372 104.088 75.772 104.6 77.628 104.6C78.156 104.6 78.692 104.56 79.236 104.48C79.796 104.384 80.348 104.248 80.892 104.072V100.136H77.004V97.856H83.46V105.992C82.676 106.376 81.748 106.68 80.676 106.904C79.604 107.128 78.54 107.24 77.484 107.24ZM92.5159 107.24C91.1879 107.24 90.0439 106.992 89.0839 106.496C88.1239 106 87.3799 105.296 86.8519 104.384C86.3399 103.472 86.0839 102.392 86.0839 101.144C86.0839 99.928 86.3319 98.864 86.8279 97.952C87.3399 97.04 88.0359 96.328 88.9159 95.816C89.8119 95.288 90.8279 95.024 91.9639 95.024C93.6279 95.024 94.9399 95.552 95.8999 96.608C96.8759 97.664 97.3639 99.104 97.3639 100.928V101.816H88.9639C89.1879 103.912 90.3879 104.96 92.5639 104.96C93.2199 104.96 93.8759 104.864 94.5319 104.672C95.1879 104.464 95.7879 104.144 96.3319 103.712L97.1719 105.728C96.6119 106.192 95.9079 106.56 95.0599 106.832C94.2119 107.104 93.3639 107.24 92.5159 107.24ZM92.0839 97.064C91.2039 97.064 90.4919 97.336 89.9479 97.88C89.4039 98.424 89.0759 99.16 88.9639 100.088H94.8679C94.8039 99.112 94.5319 98.368 94.0519 97.856C93.5879 97.328 92.9319 97.064 92.0839 97.064ZM105.069 107.24C101.965 107.24 100.413 105.704 100.413 102.632V97.52H98.1568V95.264H100.413V91.76H103.413V95.264H106.965V97.52H103.413V102.464C103.413 103.232 103.581 103.808 103.917 104.192C104.253 104.576 104.797 104.768 105.549 104.768C105.773 104.768 106.005 104.744 106.245 104.696C106.485 104.632 106.733 104.568 106.989 104.504L107.445 106.712C107.157 106.872 106.789 107 106.341 107.096C105.909 107.192 105.485 107.24 105.069 107.24ZM118.613 107L113.981 95.264H117.053L120.053 103.52L123.077 95.264H125.189L128.213 103.568L131.213 95.264H134.117L129.509 107H126.893L124.037 99.44L121.229 107H118.613ZM141.383 107.24C140.055 107.24 138.911 106.992 137.951 106.496C136.991 106 136.247 105.296 135.719 104.384C135.207 103.472 134.951 102.392 134.951 101.144C134.951 99.928 135.199 98.864 135.695 97.952C136.207 97.04 136.903 96.328 137.783 95.816C138.679 95.288 139.695 95.024 140.831 95.024C142.495 95.024 143.807 95.552 144.767 96.608C145.743 97.664 146.231 99.104 146.231 100.928V101.816H137.831C138.055 103.912 139.255 104.96 141.431 104.96C142.087 104.96 142.743 104.864 143.399 104.672C144.055 104.464 144.655 104.144 145.199 103.712L146.039 105.728C145.479 106.192 144.775 106.56 143.927 106.832C143.079 107.104 142.231 107.24 141.383 107.24ZM140.951 97.064C140.071 97.064 139.359 97.336 138.815 97.88C138.271 98.424 137.943 99.16 137.831 100.088H143.735C143.671 99.112 143.399 98.368 142.919 97.856C142.455 97.328 141.799 97.064 140.951 97.064ZM152.687 107.24C151.295 107.24 150.263 106.864 149.591 106.112C148.935 105.344 148.607 104.224 148.607 102.752V90.08H151.607V102.608C151.607 104.048 152.215 104.768 153.431 104.768C153.607 104.768 153.783 104.76 153.959 104.744C154.135 104.728 154.303 104.696 154.463 104.648L154.415 107.024C153.839 107.168 153.263 107.24 152.687 107.24ZM160.351 107.24C158.959 107.24 157.927 106.864 157.255 106.112C156.599 105.344 156.271 104.224 156.271 102.752V90.08H159.271V102.608C159.271 104.048 159.879 104.768 161.095 104.768C161.271 104.768 161.447 104.76 161.623 104.744C161.799 104.728 161.967 104.696 162.127 104.648L162.079 107.024C161.503 107.168 160.927 107.24 160.351 107.24ZM174.7 107.24C173.708 107.24 172.78 107.12 171.916 106.88C171.052 106.64 170.332 106.296 169.756 105.848L170.524 103.88C171.116 104.28 171.78 104.592 172.516 104.816C173.252 105.024 173.988 105.128 174.724 105.128C175.492 105.128 176.06 105 176.428 104.744C176.812 104.472 177.004 104.12 177.004 103.688C177.004 103.016 176.508 102.584 175.516 102.392L173.116 101.936C171.084 101.552 170.068 100.496 170.068 98.768C170.068 98 170.276 97.336 170.692 96.776C171.124 96.216 171.716 95.784 172.468 95.48C173.22 95.176 174.084 95.024 175.06 95.024C175.892 95.024 176.692 95.144 177.46 95.384C178.228 95.608 178.884 95.952 179.428 96.416L178.612 98.384C178.148 98 177.588 97.696 176.932 97.472C176.292 97.248 175.676 97.136 175.084 97.136C174.3 97.136 173.716 97.272 173.332 97.544C172.964 97.816 172.78 98.176 172.78 98.624C172.78 99.328 173.236 99.76 174.148 99.92L176.548 100.376C177.588 100.568 178.372 100.92 178.9 101.432C179.444 101.944 179.716 102.632 179.716 103.496C179.716 104.664 179.26 105.584 178.348 106.256C177.436 106.912 176.22 107.24 174.7 107.24ZM187.475 107.24C186.259 107.24 185.203 106.992 184.307 106.496C183.411 106 182.715 105.296 182.219 104.384C181.723 103.456 181.475 102.368 181.475 101.12C181.475 99.872 181.723 98.792 182.219 97.88C182.715 96.968 183.411 96.264 184.307 95.768C185.203 95.272 186.259 95.024 187.475 95.024C188.691 95.024 189.747 95.272 190.643 95.768C191.539 96.264 192.235 96.968 192.731 97.88C193.227 98.792 193.475 99.872 193.475 101.12C193.475 102.368 193.227 103.456 192.731 104.384C192.235 105.296 191.539 106 190.643 106.496C189.747 106.992 188.691 107.24 187.475 107.24ZM187.475 104.96C188.371 104.96 189.091 104.64 189.635 104C190.179 103.344 190.451 102.384 190.451 101.12C190.451 99.84 190.179 98.888 189.635 98.264C189.091 97.624 188.371 97.304 187.475 97.304C186.579 97.304 185.859 97.624 185.315 98.264C184.771 98.888 184.499 99.84 184.499 101.12C184.499 102.384 184.771 103.344 185.315 104C185.859 104.64 186.579 104.96 187.475 104.96ZM201.303 107.24C200.087 107.24 199.031 106.992 198.135 106.496C197.239 106 196.543 105.296 196.047 104.384C195.551 103.456 195.303 102.368 195.303 101.12C195.303 99.872 195.551 98.792 196.047 97.88C196.543 96.968 197.239 96.264 198.135 95.768C199.031 95.272 200.087 95.024 201.303 95.024C202.519 95.024 203.575 95.272 204.471 95.768C205.367 96.264 206.063 96.968 206.559 97.88C207.055 98.792 207.303 99.872 207.303 101.12C207.303 102.368 207.055 103.456 206.559 104.384C206.063 105.296 205.367 106 204.471 106.496C203.575 106.992 202.519 107.24 201.303 107.24ZM201.303 104.96C202.199 104.96 202.919 104.64 203.463 104C204.007 103.344 204.279 102.384 204.279 101.12C204.279 99.84 204.007 98.888 203.463 98.264C202.919 97.624 202.199 97.304 201.303 97.304C200.407 97.304 199.687 97.624 199.143 98.264C198.599 98.888 198.327 99.84 198.327 101.12C198.327 102.384 198.599 103.344 199.143 104C199.687 104.64 200.407 104.96 201.303 104.96ZM209.779 107V95.264H212.707V97.088C213.107 96.416 213.643 95.904 214.315 95.552C215.003 95.2 215.771 95.024 216.619 95.024C219.387 95.024 220.771 96.632 220.771 99.848V107H217.771V99.992C217.771 99.08 217.595 98.416 217.243 98C216.907 97.584 216.379 97.376 215.659 97.376C214.779 97.376 214.075 97.656 213.547 98.216C213.035 98.76 212.779 99.488 212.779 100.4V107H209.779Z" fill="#E46B6B"/>
</svg>
