<svg width="116" height="84" viewBox="0 0 116 84" fill="none" xmlns="http://www.w3.org/2000/svg">
<path d="M42 40.24H74V8.24H42V40.24Z" fill="white"/>
<path d="M5.928 74V59.648H0.12V57.08H14.808V59.648H9V74H5.928ZM16.4663 74V57.08H19.4663V63.968C19.8663 63.328 20.4023 62.848 21.0742 62.528C21.7463 62.192 22.4903 62.024 23.3063 62.024C26.0743 62.024 27.4583 63.632 27.4583 66.848V74H24.4583V66.992C24.4583 66.08 24.2823 65.416 23.9303 65C23.5943 64.584 23.0663 64.376 22.3463 64.376C21.4663 64.376 20.7623 64.656 20.2343 65.216C19.7223 65.76 19.4663 66.488 19.4663 67.4V74H16.4663ZM34.3693 74.24C33.5213 74.24 32.7613 74.08 32.0893 73.76C31.4333 73.424 30.9133 72.976 30.5293 72.416C30.1613 71.856 29.9773 71.224 29.9773 70.52C29.9773 69.656 30.2013 68.976 30.6493 68.48C31.0973 67.968 31.8253 67.6 32.8333 67.376C33.8413 67.152 35.1933 67.04 36.8893 67.04H37.7293V66.536C37.7293 65.736 37.5533 65.16 37.2013 64.808C36.8493 64.456 36.2573 64.28 35.4253 64.28C34.7693 64.28 34.0973 64.384 33.4093 64.592C32.7213 64.784 32.0253 65.088 31.3213 65.504L30.4573 63.464C30.8733 63.176 31.3613 62.928 31.9213 62.72C32.4973 62.496 33.0973 62.328 33.7213 62.216C34.3613 62.088 34.9613 62.024 35.5213 62.024C37.2333 62.024 38.5053 62.424 39.3373 63.224C40.1693 64.008 40.5853 65.232 40.5853 66.896V74H37.7773V72.128C37.5053 72.784 37.0733 73.304 36.4813 73.688C35.8893 74.056 35.1853 74.24 34.3693 74.24ZM34.9933 72.176C35.7773 72.176 36.4253 71.904 36.9373 71.36C37.4653 70.816 37.7293 70.128 37.7293 69.296V68.768H36.9133C35.4093 68.768 34.3613 68.888 33.7693 69.128C33.1933 69.352 32.9053 69.768 32.9053 70.376C32.9053 70.904 33.0893 71.336 33.4573 71.672C33.8253 72.008 34.3373 72.176 34.9933 72.176ZM43.6303 74V62.264H46.5583V64.088C46.9583 63.416 47.4943 62.904 48.1663 62.552C48.8543 62.2 49.6223 62.024 50.4703 62.024C53.2383 62.024 54.6223 63.632 54.6223 66.848V74H51.6223V66.992C51.6223 66.08 51.4463 65.416 51.0943 65C50.7583 64.584 50.2303 64.376 49.5103 64.376C48.6303 64.376 47.9263 64.656 47.3983 65.216C46.8863 65.76 46.6303 66.488 46.6303 67.4V74H43.6303ZM57.6694 74V57.08H60.6694V67.256H60.7174L65.4454 62.264H69.0694L63.7414 67.88L69.4054 74H65.7334L60.7174 68.768H60.6694V74H57.6694ZM78.0613 78.32L80.2213 73.52L75.3493 62.264H78.5413L81.8293 70.472L85.1893 62.264H88.2133L81.1573 78.32H78.0613ZM94.7558 74.24C93.5398 74.24 92.4838 73.992 91.5878 73.496C90.6918 73 89.9958 72.296 89.4998 71.384C89.0038 70.456 88.7558 69.368 88.7558 68.12C88.7558 66.872 89.0038 65.792 89.4998 64.88C89.9958 63.968 90.6918 63.264 91.5878 62.768C92.4838 62.272 93.5398 62.024 94.7558 62.024C95.9718 62.024 97.0278 62.272 97.9238 62.768C98.8198 63.264 99.5158 63.968 100.012 64.88C100.508 65.792 100.756 66.872 100.756 68.12C100.756 69.368 100.508 70.456 100.012 71.384C99.5158 72.296 98.8198 73 97.9238 73.496C97.0278 73.992 95.9718 74.24 94.7558 74.24ZM94.7558 71.96C95.6518 71.96 96.3718 71.64 96.9158 71C97.4598 70.344 97.7318 69.384 97.7318 68.12C97.7318 66.84 97.4598 65.888 96.9158 65.264C96.3718 64.624 95.6518 64.304 94.7558 64.304C93.8598 64.304 93.1398 64.624 92.5958 65.264C92.0518 65.888 91.7798 66.84 91.7798 68.12C91.7798 69.384 92.0518 70.344 92.5958 71C93.1398 71.64 93.8598 71.96 94.7558 71.96ZM107.48 74.24C104.6 74.24 103.16 72.624 103.16 69.392V62.264H106.16V69.44C106.16 70.272 106.328 70.888 106.664 71.288C107 71.688 107.536 71.888 108.272 71.888C109.072 71.888 109.728 71.616 110.24 71.072C110.752 70.512 111.008 69.776 111.008 68.864V62.264H114.008V74H111.08V72.248C110.296 73.576 109.096 74.24 107.48 74.24Z" fill="#996A00"/>
</svg>
