<svg width="241" height="150" viewBox="0 0 241 150" fill="none" xmlns="http://www.w3.org/2000/svg">
<rect x="-49" width="290" height="150" rx="10" fill="#FFF4E0"/>
<path d="M80 73.24H112V41.24H80V73.24Z" fill="white"/>
<path d="M43.928 107V92.648H38.12V90.08H52.808V92.648H47V107H43.928ZM54.4663 107V90.08H57.4663V96.968C57.8663 96.328 58.4023 95.848 59.0742 95.528C59.7463 95.192 60.4903 95.024 61.3063 95.024C64.0743 95.024 65.4583 96.632 65.4583 99.848V107H62.4583V99.992C62.4583 99.08 62.2823 98.416 61.9303 98C61.5943 97.584 61.0663 97.376 60.3463 97.376C59.4663 97.376 58.7623 97.656 58.2343 98.216C57.7223 98.76 57.4663 99.488 57.4663 100.4V107H54.4663ZM72.3693 107.24C71.5213 107.24 70.7613 107.08 70.0893 106.76C69.4333 106.424 68.9133 105.976 68.5293 105.416C68.1613 104.856 67.9773 104.224 67.9773 103.52C67.9773 102.656 68.2013 101.976 68.6493 101.48C69.0973 100.968 69.8253 100.6 70.8333 100.376C71.8413 100.152 73.1933 100.04 74.8893 100.04H75.7293V99.536C75.7293 98.736 75.5533 98.16 75.2013 97.808C74.8493 97.456 74.2573 97.28 73.4253 97.28C72.7693 97.28 72.0973 97.384 71.4093 97.592C70.7213 97.784 70.0253 98.088 69.3213 98.504L68.4573 96.464C68.8733 96.176 69.3613 95.928 69.9213 95.72C70.4973 95.496 71.0973 95.328 71.7213 95.216C72.3613 95.088 72.9613 95.024 73.5213 95.024C75.2333 95.024 76.5053 95.424 77.3373 96.224C78.1693 97.008 78.5853 98.232 78.5853 99.896V107H75.7773V105.128C75.5053 105.784 75.0733 106.304 74.4813 106.688C73.8893 107.056 73.1853 107.24 72.3693 107.24ZM72.9933 105.176C73.7773 105.176 74.4253 104.904 74.9373 104.36C75.4653 103.816 75.7293 103.128 75.7293 102.296V101.768H74.9133C73.4093 101.768 72.3613 101.888 71.7693 102.128C71.1933 102.352 70.9053 102.768 70.9053 103.376C70.9053 103.904 71.0893 104.336 71.4573 104.672C71.8253 105.008 72.3373 105.176 72.9933 105.176ZM81.6303 107V95.264H84.5583V97.088C84.9583 96.416 85.4943 95.904 86.1663 95.552C86.8543 95.2 87.6223 95.024 88.4703 95.024C91.2383 95.024 92.6223 96.632 92.6223 99.848V107H89.6223V99.992C89.6223 99.08 89.4463 98.416 89.0943 98C88.7583 97.584 88.2303 97.376 87.5103 97.376C86.6303 97.376 85.9263 97.656 85.3983 98.216C84.8863 98.76 84.6303 99.488 84.6303 100.4V107H81.6303ZM95.6694 107V90.08H98.6694V100.256H98.7174L103.445 95.264H107.069L101.741 100.88L107.405 107H103.733L98.7174 101.768H98.6694V107H95.6694ZM116.061 111.32L118.221 106.52L113.349 95.264H116.541L119.829 103.472L123.189 95.264H126.213L119.157 111.32H116.061ZM132.756 107.24C131.54 107.24 130.484 106.992 129.588 106.496C128.692 106 127.996 105.296 127.5 104.384C127.004 103.456 126.756 102.368 126.756 101.12C126.756 99.872 127.004 98.792 127.5 97.88C127.996 96.968 128.692 96.264 129.588 95.768C130.484 95.272 131.54 95.024 132.756 95.024C133.972 95.024 135.028 95.272 135.924 95.768C136.82 96.264 137.516 96.968 138.012 97.88C138.508 98.792 138.756 99.872 138.756 101.12C138.756 102.368 138.508 103.456 138.012 104.384C137.516 105.296 136.82 106 135.924 106.496C135.028 106.992 133.972 107.24 132.756 107.24ZM132.756 104.96C133.652 104.96 134.372 104.64 134.916 104C135.46 103.344 135.732 102.384 135.732 101.12C135.732 99.84 135.46 98.888 134.916 98.264C134.372 97.624 133.652 97.304 132.756 97.304C131.86 97.304 131.14 97.624 130.596 98.264C130.052 98.888 129.78 99.84 129.78 101.12C129.78 102.384 130.052 103.344 130.596 104C131.14 104.64 131.86 104.96 132.756 104.96ZM145.48 107.24C142.6 107.24 141.16 105.624 141.16 102.392V95.264H144.16V102.44C144.16 103.272 144.328 103.888 144.664 104.288C145 104.688 145.536 104.888 146.272 104.888C147.072 104.888 147.728 104.616 148.24 104.072C148.752 103.512 149.008 102.776 149.008 101.864V95.264H152.008V107H149.08V105.248C148.296 106.576 147.096 107.24 145.48 107.24Z" fill="#996A00"/>
</svg>
