<svg width="21" height="15" viewBox="0 0 21 15" fill="none" xmlns="http://www.w3.org/2000/svg">
<path d="M20.2593 2.203C20.1454 1.7804 19.9228 1.395 19.6137 1.08517C19.3046 0.775331 18.9197 0.55186 18.4973 0.437C16.9313 0.00699976 10.6663 -3.28855e-08 10.6663 -3.28855e-08C10.6663 -3.28855e-08 4.40235 -0.00700024 2.83535 0.404C2.41327 0.524146 2.02917 0.750777 1.71991 1.06213C1.41066 1.37349 1.18663 1.75912 1.06935 2.182C0.656345 3.748 0.652345 6.996 0.652345 6.996C0.652345 6.996 0.648345 10.26 1.05835 11.81C1.28835 12.667 1.96335 13.344 2.82135 13.575C4.40335 14.005 10.6513 14.012 10.6513 14.012C10.6513 14.012 16.9163 14.019 18.4823 13.609C18.9048 13.4943 19.2901 13.2714 19.6 12.9622C19.9099 12.653 20.1337 12.2682 20.2493 11.846C20.6633 10.281 20.6663 7.034 20.6663 7.034C20.6663 7.034 20.6863 3.769 20.2593 2.203ZM8.66235 10.005L8.66735 4.005L13.8743 7.01L8.66235 10.005Z" fill="black"/>
</svg>
